<svg width="1302" height="339" viewBox="0 0 1302 339" fill="none" xmlns="http://www.w3.org/2000/svg">
<g filter="url(#filter0_i)">
<path d="M142.689 212.137C142.689 224.389 141.611 235.575 139.457 245.696C137.456 255.55 133.761 264.073 128.374 271.264C123.14 278.189 115.906 283.648 106.67 287.644C97.4349 291.639 85.6596 293.636 71.3445 293.636C57.0294 293.636 45.2541 291.639 36.0186 287.644C26.783 283.648 19.4716 278.189 14.0842 271.264C8.85072 264.073 5.15651 255.55 3.00155 245.696C1.00052 235.575 0 224.389 0 212.137V14.3822C0 9.32179 0.615703 5.72624 1.84711 3.59554C3.23244 1.19851 5.38739 0 8.31198 0H44.5614C47.486 0 49.564 1.19851 50.7954 3.59554C52.1808 5.72624 52.8734 9.32179 52.8734 14.3822V196.556C52.8734 201.883 54.0279 206.411 56.3368 210.14C58.6456 213.602 63.8021 215.333 71.8063 215.333C79.9643 215.333 85.1978 213.602 87.5067 210.14C89.8156 206.411 90.97 201.883 90.97 196.556V14.3822C90.97 9.32179 91.5857 5.72624 92.8171 3.59554C94.2024 1.19851 96.3574 0 99.282 0H134.377C137.302 0 139.38 1.19851 140.611 3.59554C141.996 5.72624 142.689 9.32179 142.689 14.3822V212.137Z" fill="#3A3A3A"/>
<path d="M216.364 287.644H181.731C178.806 287.644 176.651 286.578 175.266 284.448C174.034 282.05 173.419 278.322 173.419 273.261V14.3822C173.419 9.32179 174.034 5.72624 175.266 3.59554C176.651 1.19851 178.806 0 181.731 0H205.743C208.668 0 211.131 0.799004 213.132 2.39702C215.286 3.99505 217.364 6.79158 219.366 10.7866L264.158 99.4767V14.3822C264.158 9.32179 264.774 5.72624 266.005 3.59554C267.39 1.19851 269.545 0 272.47 0H307.103C310.028 0 312.106 1.19851 313.337 3.59554C314.722 5.72624 315.415 9.32179 315.415 14.3822V273.261C315.415 278.322 314.722 282.05 313.337 284.448C312.106 286.578 310.028 287.644 307.103 287.644H272.47C269.545 287.644 267.39 286.578 266.005 284.448C264.774 282.05 264.158 278.322 264.158 273.261V224.122L224.676 141.425V273.261C224.676 278.322 223.983 282.05 222.598 284.448C221.367 286.578 219.289 287.644 216.364 287.644Z" fill="#3A3A3A"/>
<path d="M391.361 287.644H355.573C352.649 287.644 350.494 286.578 349.109 284.448C347.877 282.05 347.261 278.322 347.261 273.261V14.3822C347.261 9.32179 347.877 5.72624 349.109 3.59554C350.494 1.19851 352.649 0 355.573 0H458.55C461.474 0 463.552 1.19851 464.784 3.59554C466.169 5.72624 466.862 9.32179 466.862 14.3822V61.9233C466.862 66.9837 466.169 70.7124 464.784 73.1094C463.552 75.2401 461.474 76.3054 458.55 76.3054H399.673V117.854H439.848C442.772 117.854 444.85 119.052 446.082 121.45C447.467 123.58 448.16 127.176 448.16 132.236V180.177C448.16 185.237 447.467 188.966 446.082 191.363C444.85 193.494 442.772 194.559 439.848 194.559H399.673V273.261C399.673 278.322 398.98 282.05 397.595 284.448C396.364 286.578 394.286 287.644 391.361 287.644Z" fill="#3A3A3A"/>
<path d="M631.523 212.137C631.523 224.389 630.445 235.575 628.29 245.696C626.289 255.55 622.595 264.073 617.208 271.264C611.974 278.189 604.74 283.648 595.504 287.644C586.269 291.639 574.493 293.636 560.178 293.636C545.863 293.636 534.088 291.639 524.852 287.644C515.617 283.648 508.305 278.189 502.918 271.264C497.685 264.073 493.99 255.55 491.835 245.696C489.834 235.575 488.834 224.389 488.834 212.137V14.3822C488.834 9.32179 489.45 5.72624 490.681 3.59554C492.066 1.19851 494.221 0 497.146 0H533.395C536.32 0 538.398 1.19851 539.629 3.59554C541.015 5.72624 541.707 9.32179 541.707 14.3822V196.556C541.707 201.883 542.862 206.411 545.171 210.14C547.479 213.602 552.636 215.333 560.64 215.333C568.798 215.333 574.032 213.602 576.34 210.14C578.649 206.411 579.804 201.883 579.804 196.556V14.3822C579.804 9.32179 580.42 5.72624 581.651 3.59554C583.036 1.19851 585.191 0 588.116 0H623.211C626.135 0 628.213 1.19851 629.445 3.59554C630.83 5.72624 631.523 9.32179 631.523 14.3822V212.137Z" fill="#3A3A3A"/>
</g>
<path d="M0 323.36C0 314.903 6.85556 308.048 15.3123 308.048H616.21C624.667 308.048 631.523 314.903 631.523 323.36V323.36C631.523 331.817 624.667 338.672 616.21 338.672H15.3123C6.85554 338.672 0 331.817 0 323.36V323.36Z" fill="#262626"/>
<g filter="url(#filter1_i)">
<path d="M772.753 142.675H715.619C700.504 142.675 689.259 139.372 681.883 132.767C674.628 126.161 671 115.989 671 102.25V40.4245C671 26.6855 674.628 16.5133 681.883 9.90797C689.259 3.30266 700.504 0 715.619 0H760.963C763.261 0 764.893 0.594477 765.86 1.78343C766.949 2.84029 767.493 4.62372 767.493 7.13374V31.111C767.493 33.621 766.949 35.4705 765.86 36.6595C764.893 37.7163 763.261 38.2448 760.963 38.2448H723.237C719.488 38.2448 716.707 39.1035 714.893 40.8208C713.08 42.4061 712.173 44.8501 712.173 48.1527V95.5128C712.173 98.8155 712.838 101.259 714.168 102.845C715.619 104.43 717.735 105.223 720.516 105.223H738.11V74.3098C738.11 71.7997 738.593 70.0163 739.561 68.9595C740.649 67.7705 742.342 67.176 744.639 67.176H772.753C775.05 67.176 776.683 67.7705 777.65 68.9595C778.738 70.0163 779.282 71.7997 779.282 74.3098V135.541C779.282 138.051 778.738 139.901 777.65 141.089C776.683 142.146 775.05 142.675 772.753 142.675Z" fill="#3A3A3A"/>
<path d="M842.403 35.6687V61.0331H856.006C859.15 61.0331 861.266 60.1744 862.355 58.457C863.443 56.6075 863.987 54.3617 863.987 51.7196V44.9822C863.987 42.3401 863.443 40.1603 862.355 38.4429C861.266 36.5934 859.15 35.6687 856.006 35.6687H842.403ZM835.873 142.675H807.941C805.644 142.675 803.951 142.146 802.863 141.089C801.895 139.901 801.412 138.051 801.412 135.541V7.13374C801.412 4.62372 801.895 2.84029 802.863 1.78343C803.951 0.594477 805.644 0 807.941 0H868.34C881.883 0 891.193 3.10449 896.272 9.31349C901.472 15.3904 904.071 23.3168 904.071 33.0926V42.2079C904.071 47.7564 903.285 52.5122 901.713 56.4754C900.262 60.3065 897.663 63.0807 893.914 64.7981C900.444 65.5908 905.704 68.4971 909.694 73.5171C913.805 78.5372 915.861 85.2085 915.861 93.5312V135.541C915.861 138.051 915.317 139.901 914.228 141.089C913.261 142.146 911.629 142.675 909.331 142.675H881.218C878.92 142.675 877.227 142.146 876.139 141.089C875.172 139.901 874.688 138.051 874.688 135.541V105.223C874.688 102.316 874.144 100.203 873.056 98.8815C872.088 97.4284 870.335 96.7018 867.796 96.7018H842.403V135.541C842.403 138.051 841.859 139.901 840.771 141.089C839.803 142.146 838.171 142.675 835.873 142.675Z" fill="#3A3A3A"/>
<path d="M983.544 41.6135L975.02 71.7337H1003.5L994.971 41.6135C994.487 40.4245 993.943 39.5658 993.339 39.0374C992.855 38.509 992.25 38.2448 991.525 38.2448H986.99C986.265 38.2448 985.6 38.509 984.995 39.0374C984.512 39.5658 984.028 40.4245 983.544 41.6135ZM973.206 135.541C973.206 138.051 972.662 139.901 971.573 141.089C970.606 142.146 968.974 142.675 966.676 142.675H940.014C937.716 142.675 936.023 142.146 934.935 141.089C933.968 139.901 933.484 138.051 933.484 135.541V83.2269C933.484 79.2638 934.028 74.7061 935.117 69.5539C936.326 64.4018 938.14 58.391 940.558 51.5214L956.338 6.53926C957.063 4.29345 958.151 2.64212 959.602 1.58528C961.174 0.528425 963.17 0 965.588 0H1014.38C1016.68 0 1018.55 0.528425 1020 1.58528C1021.57 2.64212 1022.72 4.29345 1023.45 6.53926L1039.23 51.5214C1041.65 58.391 1043.4 64.4018 1044.49 69.5539C1045.7 74.7061 1046.3 79.2638 1046.3 83.2269V135.541C1046.3 138.051 1045.76 139.901 1044.67 141.089C1043.7 142.146 1042.07 142.675 1039.77 142.675H1012.38C1009.96 142.675 1008.15 142.146 1006.94 141.089C1005.85 139.901 1005.31 138.051 1005.31 135.541V107.799H973.206V135.541Z" fill="#3A3A3A"/>
<path d="M1136.35 142.675H1075.22C1072.93 142.675 1071.23 142.146 1070.15 141.089C1069.18 139.901 1068.7 138.051 1068.7 135.541V7.13374C1068.7 4.62372 1069.18 2.84029 1070.15 1.78343C1071.23 0.594477 1072.93 0 1075.22 0H1136.35C1151.46 0 1162.65 3.30266 1169.9 9.90797C1177.28 16.5133 1180.97 26.6855 1180.97 40.4245V102.25C1180.97 115.989 1177.28 126.161 1169.9 132.767C1162.65 139.372 1151.46 142.675 1136.35 142.675ZM1109.87 37.8484V105.223H1131.45C1134.35 105.223 1136.47 104.43 1137.8 102.845C1139.25 101.259 1139.98 98.8155 1139.98 95.5128V47.3601C1139.98 44.0574 1139.25 41.6795 1137.8 40.2264C1136.47 38.6411 1134.35 37.8484 1131.45 37.8484H1109.87Z" fill="#3A3A3A"/>
<path d="M1294.71 142.675H1210.55C1208.25 142.675 1206.56 142.146 1205.47 141.089C1204.5 139.901 1204.02 138.051 1204.02 135.541V7.13374C1204.02 4.62372 1204.5 2.84029 1205.47 1.78343C1206.56 0.594477 1208.25 0 1210.55 0H1294.71C1297.01 0 1298.64 0.594477 1299.61 1.78343C1300.69 2.84029 1301.24 4.62372 1301.24 7.13374V30.3184C1301.24 32.8284 1300.69 34.6779 1299.61 35.8668C1298.64 36.9237 1297.01 37.4521 1294.71 37.4521H1244.65V52.7104H1280.02C1282.31 52.7104 1283.95 53.3049 1284.91 54.4938C1286 55.5507 1286.55 57.3341 1286.55 59.8441V81.0472C1286.55 83.5572 1286 85.4067 1284.91 86.5956C1283.95 87.6525 1282.31 88.1809 1280.02 88.1809H1244.65V105.223H1294.71C1297.01 105.223 1298.64 105.817 1299.61 107.006C1300.69 108.063 1301.24 109.846 1301.24 112.356V135.541C1301.24 138.051 1300.69 139.901 1299.61 141.089C1298.64 142.146 1297.01 142.675 1294.71 142.675Z" fill="#3A3A3A"/>
</g>
<g filter="url(#filter2_i)">
<path d="M764.937 335.307H679.052C676.219 335.307 674.131 334.661 672.789 333.367C671.596 331.911 671 329.647 671 326.574V169.372C671 166.299 671.596 164.116 672.789 162.822C674.131 161.367 676.219 160.639 679.052 160.639H750.399C765.012 160.639 775.822 163.712 782.83 169.858C789.838 175.842 793.342 185.141 793.342 197.756V209.401C793.342 216.193 792.223 221.773 789.987 226.14C787.899 230.345 784.619 233.498 780.146 235.601C789.689 236.571 796.771 240.129 801.393 246.275C806.016 252.421 808.327 261.397 808.327 273.203V295.522C808.327 309.107 804.748 319.134 797.591 325.604C790.583 332.073 779.698 335.307 764.937 335.307ZM721.323 201.88V228.08H740.334C743.167 228.08 745.255 227.272 746.597 225.654C748.088 224.037 748.834 221.611 748.834 218.377V211.584C748.834 208.349 748.088 205.923 746.597 204.306C745.255 202.689 743.167 201.88 740.334 201.88H721.323ZM721.323 265.44V294.066H750.399C753.232 294.066 755.32 293.258 756.662 291.64C758.153 290.023 758.898 287.597 758.898 284.362V274.901C758.898 271.667 758.153 269.322 756.662 267.866C755.32 266.249 753.232 265.44 750.399 265.44H721.323Z" fill="#3A3A3A"/>
<path d="M969.498 289.457C969.498 296.897 968.454 303.689 966.367 309.835C964.428 315.819 960.85 320.994 955.631 325.361C950.562 329.566 943.479 332.881 934.383 335.307C925.437 337.733 914.03 338.946 900.164 338.946C886.297 338.946 874.816 337.733 865.72 335.307C856.625 332.881 849.467 329.566 844.249 325.361C839.179 320.994 835.601 315.819 833.513 309.835C831.575 303.689 830.605 296.897 830.605 289.457V206.732C830.605 199.292 831.575 192.581 833.513 186.597C835.601 180.451 839.179 175.195 844.249 170.828C849.467 166.461 856.625 163.065 865.72 160.639C874.816 158.213 886.297 157 900.164 157C914.03 157 925.437 158.213 934.383 160.639C943.479 163.065 950.562 166.461 955.631 170.828C960.85 175.195 964.428 180.451 966.367 186.597C968.454 192.581 969.498 199.292 969.498 206.732V289.457ZM881.376 280.724C881.376 283.958 882.495 286.708 884.731 288.972C886.968 291.074 892.112 292.126 900.164 292.126C908.215 292.126 913.36 291.074 915.596 288.972C917.833 286.708 918.951 283.958 918.951 280.724V215.465C918.951 212.393 917.833 209.805 915.596 207.702C913.36 205.438 908.215 204.306 900.164 204.306C892.112 204.306 886.968 205.438 884.731 207.702C882.495 209.805 881.376 212.393 881.376 215.465V280.724Z" fill="#3A3A3A"/>
<path d="M1134.4 289.457C1134.4 296.897 1133.36 303.689 1131.27 309.835C1129.33 315.819 1125.76 320.994 1120.54 325.361C1115.47 329.566 1108.38 332.881 1099.29 335.307C1090.34 337.733 1078.94 338.946 1065.07 338.946C1051.2 338.946 1039.72 337.733 1030.63 335.307C1021.53 332.881 1014.37 329.566 1009.15 325.361C1004.08 320.994 1000.51 315.819 998.418 309.835C996.48 303.689 995.511 296.897 995.511 289.457V206.732C995.511 199.292 996.48 192.581 998.418 186.597C1000.51 180.451 1004.08 175.195 1009.15 170.828C1014.37 166.461 1021.53 163.065 1030.63 160.639C1039.72 158.213 1051.2 157 1065.07 157C1078.94 157 1090.34 158.213 1099.29 160.639C1108.38 163.065 1115.47 166.461 1120.54 170.828C1125.76 175.195 1129.33 180.451 1131.27 186.597C1133.36 192.581 1134.4 199.292 1134.4 206.732V289.457ZM1046.28 280.724C1046.28 283.958 1047.4 286.708 1049.64 288.972C1051.87 291.074 1057.02 292.126 1065.07 292.126C1073.12 292.126 1078.26 291.074 1080.5 288.972C1082.74 286.708 1083.86 283.958 1083.86 280.724V215.465C1083.86 212.393 1082.74 209.805 1080.5 207.702C1078.26 205.438 1073.12 204.306 1065.07 204.306C1057.02 204.306 1051.87 205.438 1049.64 207.702C1047.4 209.805 1046.28 212.393 1046.28 215.465V280.724Z" fill="#3A3A3A"/>
<path d="M1205.6 335.307H1170.93C1168.09 335.307 1166.01 334.661 1164.67 333.367C1163.47 331.911 1162.88 329.647 1162.88 326.574V169.372C1162.88 166.299 1163.47 164.116 1164.67 162.822C1166.01 161.367 1168.09 160.639 1170.93 160.639H1205.6C1208.43 160.639 1210.44 161.367 1211.63 162.822C1212.98 164.116 1213.65 166.299 1213.65 169.372V225.169H1222.59L1245.63 168.645C1246.67 165.733 1248.09 163.712 1249.88 162.58C1251.67 161.286 1253.98 160.639 1256.81 160.639H1291.26C1293.79 160.639 1295.51 161.367 1296.4 162.822C1297.3 164.116 1297.22 166.057 1296.18 168.645L1273.36 225.169C1281.71 225.654 1288.35 228.889 1293.27 234.873C1298.34 240.695 1300.87 248.458 1300.87 258.162V326.574C1300.87 329.647 1300.2 331.911 1298.86 333.367C1297.67 334.661 1295.66 335.307 1292.82 335.307H1258.38C1255.55 335.307 1253.46 334.661 1252.12 333.367C1250.92 331.911 1250.33 329.647 1250.33 326.574V279.268C1250.33 276.68 1249.73 274.659 1248.54 273.203C1247.34 271.747 1245.56 271.02 1243.17 271.02H1213.65V326.574C1213.65 329.647 1212.98 331.911 1211.63 333.367C1210.44 334.661 1208.43 335.307 1205.6 335.307Z" fill="#3A3A3A"/>
</g>
<defs>
<filter id="filter0_i" x="0" y="0" width="635.523" height="297.636" filterUnits="userSpaceOnUse" color-interpolation-filters="sRGB">
<feFlood flood-opacity="0" result="BackgroundImageFix"/>
<feBlend mode="normal" in="SourceGraphic" in2="BackgroundImageFix" result="shape"/>
<feColorMatrix in="SourceAlpha" type="matrix" values="0 0 0 0 0 0 0 0 0 0 0 0 0 0 0 0 0 0 127 0" result="hardAlpha"/>
<feOffset dx="5" dy="8"/>
<feGaussianBlur stdDeviation="2"/>
<feComposite in2="hardAlpha" operator="arithmetic" k2="-1" k3="1"/>
<feColorMatrix type="matrix" values="0 0 0 0 0 0 0 0 0 0 0 0 0 0 0 0 0 0 1 0"/>
<feBlend mode="normal" in2="shape" result="effect1_innerShadow"/>
</filter>
<filter id="filter1_i" x="671" y="0" width="634.238" height="146.675" filterUnits="userSpaceOnUse" color-interpolation-filters="sRGB">
<feFlood flood-opacity="0" result="BackgroundImageFix"/>
<feBlend mode="normal" in="SourceGraphic" in2="BackgroundImageFix" result="shape"/>
<feColorMatrix in="SourceAlpha" type="matrix" values="0 0 0 0 0 0 0 0 0 0 0 0 0 0 0 0 0 0 127 0" result="hardAlpha"/>
<feOffset dx="5" dy="8"/>
<feGaussianBlur stdDeviation="2"/>
<feComposite in2="hardAlpha" operator="arithmetic" k2="-1" k3="1"/>
<feColorMatrix type="matrix" values="0 0 0 0 0 0 0 0 0 0 0 0 0 0 0 0 0 0 1 0"/>
<feBlend mode="normal" in2="shape" result="effect1_innerShadow"/>
</filter>
<filter id="filter2_i" x="671" y="157" width="633.874" height="185.946" filterUnits="userSpaceOnUse" color-interpolation-filters="sRGB">
<feFlood flood-opacity="0" result="BackgroundImageFix"/>
<feBlend mode="normal" in="SourceGraphic" in2="BackgroundImageFix" result="shape"/>
<feColorMatrix in="SourceAlpha" type="matrix" values="0 0 0 0 0 0 0 0 0 0 0 0 0 0 0 0 0 0 127 0" result="hardAlpha"/>
<feOffset dx="5" dy="8"/>
<feGaussianBlur stdDeviation="2"/>
<feComposite in2="hardAlpha" operator="arithmetic" k2="-1" k3="1"/>
<feColorMatrix type="matrix" values="0 0 0 0 0 0 0 0 0 0 0 0 0 0 0 0 0 0 1 0"/>
<feBlend mode="normal" in2="shape" result="effect1_innerShadow"/>
</filter>
</defs>
</svg>
