<svg width="790" height="188" viewBox="0 0 790 188" fill="none" xmlns="http://www.w3.org/2000/svg">
<path d="M86.5367 117.759C86.5367 124.56 85.8832 130.77 84.5763 136.388C83.3627 141.858 81.1223 146.589 77.855 150.581C74.681 154.425 70.2935 157.456 64.6925 159.673C59.0914 161.891 51.95 163 43.2683 163C34.5867 163 27.4453 161.891 21.8442 159.673C16.2431 157.456 11.8089 154.425 8.54164 150.581C5.3677 146.589 3.12727 141.858 1.82035 136.388C0.606784 130.77 0 124.56 0 117.759V7.98367C0 5.17461 0.373406 3.17868 1.12022 1.99592C1.96038 0.665303 3.2673 0 5.04097 0H27.0252C28.7989 0 30.0591 0.665303 30.8059 1.99592C31.6461 3.17868 32.0662 5.17461 32.0662 7.98367V109.11C32.0662 112.067 32.7663 114.58 34.1666 116.65C35.5668 118.572 38.6941 119.533 43.5484 119.533C48.496 119.533 51.67 118.572 53.0702 116.65C54.4705 114.58 55.1706 112.067 55.1706 109.11V7.98367C55.1706 5.17461 55.544 3.17868 56.2908 1.99592C57.131 0.665303 58.4379 0 60.2116 0H81.4957C83.2694 0 84.5296 0.665303 85.2764 1.99592C86.1166 3.17868 86.5367 5.17461 86.5367 7.98367V117.759Z" fill="black"/>
<path d="M131.218 159.673H110.214C108.441 159.673 107.134 159.082 106.294 157.899C105.547 156.569 105.173 154.499 105.173 151.69V7.98367C105.173 5.17461 105.547 3.17868 106.294 1.99592C107.134 0.665303 108.441 0 110.214 0H124.777C126.551 0 128.044 0.443534 129.258 1.33061C130.565 2.21769 131.825 3.77007 133.039 5.98775L160.204 55.2204V7.98367C160.204 5.17461 160.577 3.17868 161.324 1.99592C162.164 0.665303 163.471 0 165.245 0H186.249C188.023 0 189.283 0.665303 190.03 1.99592C190.87 3.17868 191.29 5.17461 191.29 7.98367V151.69C191.29 154.499 190.87 156.569 190.03 157.899C189.283 159.082 188.023 159.673 186.249 159.673H165.245C163.471 159.673 162.164 159.082 161.324 157.899C160.577 156.569 160.204 154.499 160.204 151.69V124.412L136.259 78.5061V151.69C136.259 154.499 135.839 156.569 134.999 157.899C134.252 159.082 132.992 159.673 131.218 159.673Z" fill="black"/>
<path d="M237.349 159.673H215.645C213.871 159.673 212.564 159.082 211.724 157.899C210.977 156.569 210.604 154.499 210.604 151.69V7.98367C210.604 5.17461 210.977 3.17868 211.724 1.99592C212.564 0.665303 213.871 0 215.645 0H278.097C279.871 0 281.131 0.665303 281.878 1.99592C282.718 3.17868 283.138 5.17461 283.138 7.98367V34.3742C283.138 37.1832 282.718 39.2531 281.878 40.5837C281.131 41.7664 279.871 42.3578 278.097 42.3578H242.39V65.4218H266.755C268.528 65.4218 269.789 66.0871 270.535 67.4177C271.376 68.6005 271.796 70.5964 271.796 73.4054V100.018C271.796 102.827 271.376 104.897 270.535 106.227C269.789 107.41 268.528 108.001 266.755 108.001H242.39V151.69C242.39 154.499 241.97 156.569 241.13 157.899C240.383 159.082 239.123 159.673 237.349 159.673Z" fill="black"/>
<path d="M383 117.759C383 124.56 382.347 130.77 381.04 136.388C379.826 141.858 377.586 146.589 374.318 150.581C371.144 154.425 366.757 157.456 361.156 159.673C355.555 161.891 348.413 163 339.732 163C331.05 163 323.909 161.891 318.308 159.673C312.706 157.456 308.272 154.425 305.005 150.581C301.831 146.589 299.591 141.858 298.284 136.388C297.07 130.77 296.463 124.56 296.463 117.759V7.98367C296.463 5.17461 296.837 3.17868 297.584 1.99592C298.424 0.665303 299.731 0 301.504 0H323.489C325.262 0 326.522 0.665303 327.269 1.99592C328.109 3.17868 328.529 5.17461 328.529 7.98367V109.11C328.529 112.067 329.23 114.58 330.63 116.65C332.03 118.572 335.157 119.533 340.012 119.533C344.959 119.533 348.133 118.572 349.534 116.65C350.934 114.58 351.634 112.067 351.634 109.11V7.98367C351.634 5.17461 352.007 3.17868 352.754 1.99592C353.594 0.665303 354.901 0 356.675 0H377.959C379.733 0 380.993 0.665303 381.74 1.99592C382.58 3.17868 383 5.17461 383 7.98367V117.759Z" fill="black"/>
<path d="M468.71 79.2H434.06C424.893 79.2 418.073 77.3667 413.6 73.7C409.2 70.0333 407 64.3867 407 56.76V22.44C407 14.8133 409.2 9.16667 413.6 5.5C418.073 1.83333 424.893 0 434.06 0H461.56C462.953 0 463.943 0.33 464.53 0.99C465.19 1.57667 465.52 2.56667 465.52 3.96V17.27C465.52 18.6633 465.19 19.69 464.53 20.35C463.943 20.9367 462.953 21.23 461.56 21.23H438.68C436.407 21.23 434.72 21.7067 433.62 22.66C432.52 23.54 431.97 24.8967 431.97 26.73V53.02C431.97 54.8533 432.373 56.21 433.18 57.09C434.06 57.97 435.343 58.41 437.03 58.41H447.7V41.25C447.7 39.8567 447.993 38.8667 448.58 38.28C449.24 37.62 450.267 37.29 451.66 37.29H468.71C470.103 37.29 471.093 37.62 471.68 38.28C472.34 38.8667 472.67 39.8567 472.67 41.25V75.24C472.67 76.6333 472.34 77.66 471.68 78.32C471.093 78.9067 470.103 79.2 468.71 79.2Z" fill="black"/>
<path d="M510.951 19.8V33.88H519.201C521.108 33.88 522.391 33.4033 523.051 32.45C523.711 31.4233 524.041 30.1767 524.041 28.71V24.97C524.041 23.5033 523.711 22.2933 523.051 21.34C522.391 20.3133 521.108 19.8 519.201 19.8H510.951ZM506.991 79.2H490.051C488.658 79.2 487.631 78.9067 486.971 78.32C486.384 77.66 486.091 76.6333 486.091 75.24V3.96C486.091 2.56667 486.384 1.57667 486.971 0.99C487.631 0.33 488.658 0 490.051 0H526.681C534.894 0 540.541 1.72333 543.621 5.17C546.774 8.54333 548.351 12.9433 548.351 18.37V23.43C548.351 26.51 547.874 29.15 546.921 31.35C546.041 33.4767 544.464 35.0167 542.191 35.97C546.151 36.41 549.341 38.0233 551.761 40.81C554.254 43.5967 555.501 47.3 555.501 51.92V75.24C555.501 76.6333 555.171 77.66 554.511 78.32C553.924 78.9067 552.934 79.2 551.541 79.2H534.491C533.098 79.2 532.071 78.9067 531.411 78.32C530.824 77.66 530.531 76.6333 530.531 75.24V58.41C530.531 56.7967 530.201 55.6233 529.541 54.89C528.954 54.0833 527.891 53.68 526.351 53.68H510.951V75.24C510.951 76.6333 510.621 77.66 509.961 78.32C509.374 78.9067 508.384 79.2 506.991 79.2Z" fill="black"/>
<path d="M596.549 23.1L591.379 39.82H608.649L603.479 23.1C603.186 22.44 602.856 21.9633 602.489 21.67C602.196 21.3767 601.829 21.23 601.389 21.23H598.639C598.199 21.23 597.796 21.3767 597.429 21.67C597.136 21.9633 596.842 22.44 596.549 23.1ZM590.279 75.24C590.279 76.6333 589.949 77.66 589.289 78.32C588.702 78.9067 587.712 79.2 586.319 79.2H570.149C568.756 79.2 567.729 78.9067 567.069 78.32C566.482 77.66 566.189 76.6333 566.189 75.24V46.2C566.189 44 566.519 41.47 567.179 38.61C567.912 35.75 569.012 32.4133 570.479 28.6L580.049 3.63C580.489 2.38333 581.149 1.46666 582.029 0.880001C582.982 0.293333 584.192 0 585.659 0H615.249C616.642 0 617.779 0.293333 618.659 0.880001C619.612 1.46666 620.309 2.38333 620.749 3.63L630.319 28.6C631.786 32.4133 632.849 35.75 633.509 38.61C634.242 41.47 634.609 44 634.609 46.2V75.24C634.609 76.6333 634.279 77.66 633.619 78.32C633.032 78.9067 632.042 79.2 630.649 79.2H614.039C612.572 79.2 611.472 78.9067 610.739 78.32C610.079 77.66 609.749 76.6333 609.749 75.24V59.84H590.279V75.24Z" fill="black"/>
<path d="M689.22 79.2H652.15C650.757 79.2 649.73 78.9067 649.07 78.32C648.484 77.66 648.19 76.6333 648.19 75.24V3.96C648.19 2.56667 648.484 1.57667 649.07 0.99C649.73 0.33 650.757 0 652.15 0H689.22C698.387 0 705.17 1.83333 709.57 5.5C714.044 9.16667 716.28 14.8133 716.28 22.44V56.76C716.28 64.3867 714.044 70.0333 709.57 73.7C705.17 77.3667 698.387 79.2 689.22 79.2ZM673.16 21.01V58.41H686.25C688.01 58.41 689.294 57.97 690.1 57.09C690.98 56.21 691.42 54.8533 691.42 53.02V26.29C691.42 24.4567 690.98 23.1367 690.1 22.33C689.294 21.45 688.01 21.01 686.25 21.01H673.16Z" fill="black"/>
<path d="M785.261 79.2H734.221C732.827 79.2 731.801 78.9067 731.141 78.32C730.554 77.66 730.261 76.6333 730.261 75.24V3.96C730.261 2.56667 730.554 1.57667 731.141 0.99C731.801 0.33 732.827 0 734.221 0H785.261C786.654 0 787.644 0.33 788.231 0.99C788.891 1.57667 789.221 2.56667 789.221 3.96V16.83C789.221 18.2233 788.891 19.25 788.231 19.91C787.644 20.4967 786.654 20.79 785.261 20.79H754.901V29.26H776.351C777.744 29.26 778.734 29.59 779.321 30.25C779.981 30.8367 780.311 31.8267 780.311 33.22V44.99C780.311 46.3833 779.981 47.41 779.321 48.07C778.734 48.6567 777.744 48.95 776.351 48.95H754.901V58.41H785.261C786.654 58.41 787.644 58.74 788.231 59.4C788.891 59.9867 789.221 60.9767 789.221 62.37V75.24C789.221 76.6333 788.891 77.66 788.231 78.32C787.644 78.9067 786.654 79.2 785.261 79.2Z" fill="black"/>
<path d="M463.97 185.98H411.883C410.165 185.98 408.899 185.621 408.085 184.903C407.362 184.095 407 182.838 407 181.132V93.868C407 92.1622 407.362 90.9502 408.085 90.232C408.899 89.424 410.165 89.02 411.883 89.02H455.153C464.015 89.02 470.571 90.7258 474.821 94.1373C479.072 97.4591 481.197 102.621 481.197 109.624V116.088C481.197 119.859 480.518 122.956 479.162 125.38C477.896 127.714 475.907 129.465 473.194 130.632C478.981 131.171 483.277 133.146 486.08 136.557C488.883 139.969 490.285 144.952 490.285 151.505V163.895C490.285 171.436 488.114 177.002 483.774 180.593C479.524 184.184 472.922 185.98 463.97 185.98ZM437.52 111.913V126.457H449.049C450.767 126.457 452.033 126.008 452.847 125.111C453.752 124.213 454.204 122.866 454.204 121.071V117.3C454.204 115.504 453.752 114.158 452.847 113.26C452.033 112.362 450.767 111.913 449.049 111.913H437.52ZM437.52 147.196V163.087H455.153C456.871 163.087 458.137 162.638 458.951 161.74C459.856 160.842 460.308 159.496 460.308 157.7V152.448C460.308 150.652 459.856 149.351 458.951 148.543C458.137 147.645 456.871 147.196 455.153 147.196H437.52Z" fill="black"/>
<path d="M588.03 160.528C588.03 164.658 587.397 168.428 586.131 171.84C584.956 175.162 582.785 178.035 579.62 180.459C576.546 182.793 572.25 184.633 566.734 185.98C561.309 187.327 554.391 188 545.981 188C537.571 188 530.608 187.327 525.092 185.98C519.576 184.633 515.235 182.793 512.07 180.459C508.996 178.035 506.825 175.162 505.559 171.84C504.384 168.428 503.796 164.658 503.796 160.528V114.607C503.796 110.477 504.384 106.751 505.559 103.429C506.825 100.018 508.996 97.1 512.07 94.676C515.235 92.252 519.576 90.3667 525.092 89.02C530.608 87.6733 537.571 87 545.981 87C554.391 87 561.309 87.6733 566.734 89.02C572.25 90.3667 576.546 92.252 579.62 94.676C582.785 97.1 584.956 100.018 586.131 103.429C587.397 106.751 588.03 110.477 588.03 114.607V160.528ZM534.587 155.68C534.587 157.476 535.265 159.002 536.622 160.259C537.978 161.426 541.098 162.009 545.981 162.009C550.864 162.009 553.984 161.426 555.34 160.259C556.697 159.002 557.375 157.476 557.375 155.68V119.455C557.375 117.749 556.697 116.312 555.34 115.145C553.984 113.888 550.864 113.26 545.981 113.26C541.098 113.26 537.978 113.888 536.622 115.145C535.265 116.312 534.587 117.749 534.587 119.455V155.68Z" fill="black"/>
<path d="M688.04 160.528C688.04 164.658 687.407 168.428 686.141 171.84C684.966 175.162 682.796 178.035 679.631 180.459C676.556 182.793 672.261 184.633 666.744 185.98C661.319 187.327 654.401 188 645.991 188C637.581 188 630.618 187.327 625.102 185.98C619.586 184.633 615.245 182.793 612.08 180.459C609.006 178.035 606.835 175.162 605.569 171.84C604.394 168.428 603.806 164.658 603.806 160.528V114.607C603.806 110.477 604.394 106.751 605.569 103.429C606.835 100.018 609.006 97.1 612.08 94.676C615.245 92.252 619.586 90.3667 625.102 89.02C630.618 87.6733 637.581 87 645.991 87C654.401 87 661.319 87.6733 666.744 89.02C672.261 90.3667 676.556 92.252 679.631 94.676C682.796 97.1 684.966 100.018 686.141 103.429C687.407 106.751 688.04 110.477 688.04 114.607V160.528ZM634.597 155.68C634.597 157.476 635.275 159.002 636.632 160.259C637.988 161.426 641.108 162.009 645.991 162.009C650.874 162.009 653.994 161.426 655.35 160.259C656.707 159.002 657.385 157.476 657.385 155.68V119.455C657.385 117.749 656.707 116.312 655.35 115.145C653.994 113.888 650.874 113.26 645.991 113.26C641.108 113.26 637.988 113.888 636.632 115.145C635.275 116.312 634.597 117.749 634.597 119.455V155.68Z" fill="black"/>
<path d="M731.216 185.98H710.191C708.473 185.98 707.207 185.621 706.393 184.903C705.67 184.095 705.308 182.838 705.308 181.132V93.868C705.308 92.1622 705.67 90.9502 706.393 90.232C707.207 89.424 708.473 89.02 710.191 89.02H731.216C732.934 89.02 734.155 89.424 734.878 90.232C735.692 90.9502 736.099 92.1622 736.099 93.868V124.841H741.525L755.496 93.464C756.129 91.848 756.988 90.7258 758.073 90.0973C759.159 89.3791 760.56 89.02 762.278 89.02H783.167C784.705 89.02 785.745 89.424 786.287 90.232C786.83 90.9502 786.784 92.0276 786.151 93.464L772.316 124.841C777.38 125.111 781.404 126.906 784.388 130.228C787.463 133.46 789 137.769 789 143.156V181.132C789 182.838 788.593 184.095 787.779 184.903C787.056 185.621 785.835 185.98 784.117 185.98H763.228C761.51 185.98 760.244 185.621 759.43 184.903C758.706 184.095 758.345 182.838 758.345 181.132V154.872C758.345 153.436 757.983 152.313 757.26 151.505C756.536 150.697 755.451 150.293 754.004 150.293H736.099V181.132C736.099 182.838 735.692 184.095 734.878 184.903C734.155 185.621 732.934 185.98 731.216 185.98Z" fill="black"/>
<path d="M0 179.5C0 174.806 3.80558 171 8.5 171H374.5C379.194 171 383 174.806 383 179.5V179.5C383 184.194 379.194 188 374.5 188H8.49999C3.80557 188 0 184.194 0 179.5V179.5Z" fill="black"/>
</svg>
