<svg width="632" height="698" viewBox="0 0 632 698" fill="none" xmlns="http://www.w3.org/2000/svg">
<g filter="url(#filter0_i)">
<path d="M142.689 212.137C142.689 224.389 141.611 235.575 139.457 245.696C137.456 255.55 133.761 264.073 128.374 271.264C123.14 278.189 115.906 283.648 106.67 287.644C97.4349 291.639 85.6596 293.636 71.3445 293.636C57.0294 293.636 45.2541 291.639 36.0186 287.644C26.783 283.648 19.4716 278.189 14.0842 271.264C8.85072 264.073 5.15651 255.55 3.00155 245.696C1.00052 235.575 0 224.389 0 212.137V14.3822C0 9.32179 0.615703 5.72624 1.84711 3.59554C3.23244 1.19851 5.38739 0 8.31198 0H44.5614C47.486 0 49.564 1.19851 50.7954 3.59554C52.1808 5.72624 52.8734 9.32179 52.8734 14.3822V196.556C52.8734 201.883 54.0279 206.411 56.3368 210.14C58.6456 213.602 63.8021 215.333 71.8063 215.333C79.9643 215.333 85.1978 213.602 87.5067 210.14C89.8156 206.411 90.97 201.883 90.97 196.556V14.3822C90.97 9.32179 91.5857 5.72624 92.8171 3.59554C94.2024 1.19851 96.3574 0 99.282 0H134.377C137.302 0 139.38 1.19851 140.611 3.59554C141.996 5.72624 142.689 9.32179 142.689 14.3822V212.137Z" fill="#3A3A3A"/>
<path d="M216.364 287.644H181.731C178.806 287.644 176.651 286.578 175.266 284.448C174.034 282.05 173.419 278.322 173.419 273.261V14.3822C173.419 9.32179 174.034 5.72624 175.266 3.59554C176.651 1.19851 178.806 0 181.731 0H205.743C208.668 0 211.131 0.799004 213.132 2.39702C215.286 3.99505 217.364 6.79158 219.366 10.7866L264.158 99.4767V14.3822C264.158 9.32179 264.774 5.72624 266.005 3.59554C267.39 1.19851 269.545 0 272.47 0H307.103C310.028 0 312.106 1.19851 313.337 3.59554C314.722 5.72624 315.415 9.32179 315.415 14.3822V273.261C315.415 278.322 314.722 282.05 313.337 284.448C312.106 286.578 310.028 287.644 307.103 287.644H272.47C269.545 287.644 267.39 286.578 266.005 284.448C264.774 282.05 264.158 278.322 264.158 273.261V224.122L224.676 141.425V273.261C224.676 278.322 223.983 282.05 222.598 284.448C221.367 286.578 219.289 287.644 216.364 287.644Z" fill="#3A3A3A"/>
<path d="M391.361 287.644H355.573C352.649 287.644 350.494 286.578 349.109 284.448C347.877 282.05 347.261 278.322 347.261 273.261V14.3822C347.261 9.32179 347.877 5.72624 349.109 3.59554C350.494 1.19851 352.649 0 355.573 0H458.55C461.474 0 463.552 1.19851 464.784 3.59554C466.169 5.72624 466.862 9.32179 466.862 14.3822V61.9233C466.862 66.9837 466.169 70.7124 464.784 73.1094C463.552 75.2401 461.474 76.3054 458.55 76.3054H399.673V117.854H439.848C442.772 117.854 444.85 119.052 446.082 121.45C447.467 123.58 448.16 127.176 448.16 132.236V180.177C448.16 185.237 447.467 188.966 446.082 191.363C444.85 193.494 442.772 194.559 439.848 194.559H399.673V273.261C399.673 278.322 398.98 282.05 397.595 284.448C396.364 286.578 394.286 287.644 391.361 287.644Z" fill="#3A3A3A"/>
<path d="M631.523 212.137C631.523 224.389 630.445 235.575 628.29 245.696C626.289 255.55 622.595 264.073 617.208 271.264C611.974 278.189 604.74 283.648 595.504 287.644C586.269 291.639 574.493 293.636 560.178 293.636C545.863 293.636 534.088 291.639 524.852 287.644C515.617 283.648 508.305 278.189 502.918 271.264C497.685 264.073 493.99 255.55 491.835 245.696C489.834 235.575 488.834 224.389 488.834 212.137V14.3822C488.834 9.32179 489.45 5.72624 490.681 3.59554C492.066 1.19851 494.221 0 497.146 0H533.395C536.32 0 538.398 1.19851 539.629 3.59554C541.015 5.72624 541.707 9.32179 541.707 14.3822V196.556C541.707 201.883 542.862 206.411 545.171 210.14C547.479 213.602 552.636 215.333 560.64 215.333C568.798 215.333 574.032 213.602 576.34 210.14C578.649 206.411 579.804 201.883 579.804 196.556V14.3822C579.804 9.32179 580.42 5.72624 581.651 3.59554C583.036 1.19851 585.191 0 588.116 0H623.211C626.135 0 628.213 1.19851 629.445 3.59554C630.83 5.72624 631.523 9.32179 631.523 14.3822V212.137Z" fill="#3A3A3A"/>
</g>
<path d="M0 323.36C0 314.903 6.85556 308.048 15.3123 308.048H616.21C624.667 308.048 631.523 314.903 631.523 323.36V323.36C631.523 331.817 624.667 338.672 616.21 338.672H15.3123C6.85554 338.672 0 331.817 0 323.36V323.36Z" fill="#262626"/>
<g filter="url(#filter1_i)">
<path d="M103.402 501.163H46.2678C31.153 501.163 19.9076 497.86 12.5316 491.255C5.27647 484.65 1.64893 474.478 1.64893 460.739V398.913C1.64893 385.174 5.27647 375.002 12.5316 368.396C19.9076 361.791 31.153 358.488 46.2678 358.488H91.6121C93.9095 358.488 95.5419 359.083 96.5093 360.272C97.5975 361.329 98.1417 363.112 98.1417 365.622V389.599C98.1417 392.109 97.5975 393.959 96.5093 395.148C95.5419 396.205 93.9095 396.733 91.6121 396.733H53.8856C50.1371 396.733 47.356 397.592 45.5422 399.309C43.7285 400.894 42.8216 403.338 42.8216 406.641V454.001C42.8216 457.304 43.4866 459.748 44.8167 461.333C46.2678 462.918 48.3838 463.711 51.1649 463.711H68.7585V432.798C68.7585 430.288 69.2422 428.505 70.2096 427.448C71.2978 426.259 72.9907 425.664 75.2881 425.664H103.402C105.699 425.664 107.331 426.259 108.299 427.448C109.387 428.505 109.931 430.288 109.931 432.798V494.029C109.931 496.539 109.387 498.389 108.299 499.578C107.331 500.635 105.699 501.163 103.402 501.163Z" fill="#3A3A3A"/>
<path d="M173.052 394.157V419.521H186.655C189.799 419.521 191.915 418.663 193.003 416.945C194.092 415.096 194.636 412.85 194.636 410.208V403.47C194.636 400.828 194.092 398.649 193.003 396.931C191.915 395.082 189.799 394.157 186.655 394.157H173.052ZM166.522 501.163H138.59C136.293 501.163 134.6 500.635 133.512 499.578C132.544 498.389 132.061 496.539 132.061 494.029V365.622C132.061 363.112 132.544 361.329 133.512 360.272C134.6 359.083 136.293 358.488 138.59 358.488H198.989C212.532 358.488 221.842 361.593 226.921 367.802C232.12 373.879 234.72 381.805 234.72 391.581V400.696C234.72 406.245 233.934 411.001 232.362 414.964C230.911 418.795 228.312 421.569 224.563 423.286C231.093 424.079 236.353 426.985 240.343 432.005C244.454 437.025 246.51 443.697 246.51 452.02V494.029C246.51 496.539 245.966 498.389 244.877 499.578C243.91 500.635 242.278 501.163 239.98 501.163H211.867C209.569 501.163 207.876 500.635 206.788 499.578C205.821 498.389 205.337 496.539 205.337 494.029V463.711C205.337 460.805 204.793 458.691 203.705 457.37C202.737 455.917 200.984 455.19 198.445 455.19H173.052V494.029C173.052 496.539 172.508 498.389 171.42 499.578C170.452 500.635 168.82 501.163 166.522 501.163Z" fill="#3A3A3A"/>
<path d="M314.193 400.102L305.668 430.222H334.145L325.62 400.102C325.136 398.913 324.592 398.054 323.988 397.526C323.504 396.997 322.899 396.733 322.174 396.733H317.639C316.914 396.733 316.249 396.997 315.644 397.526C315.161 398.054 314.677 398.913 314.193 400.102ZM303.855 494.029C303.855 496.539 303.311 498.389 302.222 499.578C301.255 500.635 299.623 501.163 297.325 501.163H270.663C268.365 501.163 266.672 500.635 265.584 499.578C264.617 498.389 264.133 496.539 264.133 494.029V441.715C264.133 437.752 264.677 433.194 265.765 428.042C266.975 422.89 268.788 416.879 271.207 410.01L286.987 365.028C287.712 362.782 288.8 361.13 290.251 360.074C291.823 359.017 293.819 358.488 296.237 358.488H345.027C347.325 358.488 349.199 359.017 350.65 360.074C352.222 361.13 353.371 362.782 354.096 365.028L369.876 410.01C372.294 416.879 374.048 422.89 375.136 428.042C376.345 433.194 376.95 437.752 376.95 441.715V494.029C376.95 496.539 376.406 498.389 375.317 499.578C374.35 500.635 372.718 501.163 370.42 501.163H343.032C340.614 501.163 338.8 500.635 337.591 499.578C336.503 498.389 335.959 496.539 335.959 494.029V466.287H303.855V494.029Z" fill="#3A3A3A"/>
<path d="M466.998 501.163H405.874C403.576 501.163 401.883 500.635 400.795 499.578C399.828 498.389 399.344 496.539 399.344 494.029V365.622C399.344 363.112 399.828 361.329 400.795 360.272C401.883 359.083 403.576 358.488 405.874 358.488H466.998C482.113 358.488 493.298 361.791 500.553 368.396C507.929 375.002 511.617 385.174 511.617 398.913V460.739C511.617 474.478 507.929 484.65 500.553 491.255C493.298 497.86 482.113 501.163 466.998 501.163ZM440.517 396.337V463.711H462.101C465.003 463.711 467.119 462.918 468.449 461.333C469.9 459.748 470.626 457.304 470.626 454.001V405.848C470.626 402.546 469.9 400.168 468.449 398.715C467.119 397.129 465.003 396.337 462.101 396.337H440.517Z" fill="#3A3A3A"/>
<path d="M625.357 501.163H541.198C538.901 501.163 537.208 500.635 536.12 499.578C535.152 498.389 534.669 496.539 534.669 494.029V365.622C534.669 363.112 535.152 361.329 536.12 360.272C537.208 359.083 538.901 358.488 541.198 358.488H625.357C627.655 358.488 629.287 359.083 630.255 360.272C631.343 361.329 631.887 363.112 631.887 365.622V388.807C631.887 391.317 631.343 393.166 630.255 394.355C629.287 395.412 627.655 395.94 625.357 395.94H575.297V411.199H610.666C612.963 411.199 614.596 411.793 615.563 412.982C616.651 414.039 617.195 415.822 617.195 418.332V439.535C617.195 442.045 616.651 443.895 615.563 445.084C614.596 446.141 612.963 446.669 610.666 446.669H575.297V463.711H625.357C627.655 463.711 629.287 464.305 630.255 465.494C631.343 466.551 631.887 468.335 631.887 470.845V494.029C631.887 496.539 631.343 498.389 630.255 499.578C629.287 500.635 627.655 501.163 625.357 501.163Z" fill="#3A3A3A"/>
</g>
<g filter="url(#filter2_i)">
<path d="M95.5859 693.522H9.70067C6.86765 693.522 4.78016 692.875 3.4382 691.581C2.24535 690.125 1.64893 687.861 1.64893 684.788V527.587C1.64893 524.514 2.24535 522.33 3.4382 521.037C4.78016 519.581 6.86765 518.853 9.70067 518.853H81.048C95.6605 518.853 106.471 521.926 113.479 528.072C120.487 534.056 123.991 543.355 123.991 555.97V567.615C123.991 574.408 122.872 579.987 120.636 584.354C118.548 588.559 115.268 591.713 110.795 593.815C120.338 594.786 127.42 598.344 132.042 604.489C136.665 610.635 138.976 619.611 138.976 631.417V653.736C138.976 667.322 135.397 677.349 128.24 683.818C121.232 690.287 110.347 693.522 95.5859 693.522ZM51.9723 560.094V586.295H70.9834C73.8164 586.295 75.9039 585.486 77.2458 583.869C78.7369 582.251 79.4824 579.826 79.4824 576.591V569.798C79.4824 566.564 78.7369 564.138 77.2458 562.52C75.9039 560.903 73.8164 560.094 70.9834 560.094H51.9723ZM51.9723 623.654V652.281H81.048C83.8811 652.281 85.9686 651.472 87.3105 649.855C88.8016 648.237 89.5471 645.811 89.5471 642.577V633.116C89.5471 629.881 88.8016 627.536 87.3105 626.08C85.9686 624.463 83.8811 623.654 81.048 623.654H51.9723Z" fill="#3A3A3A"/>
<path d="M300.147 647.671C300.147 655.111 299.103 661.904 297.016 668.049C295.077 674.033 291.499 679.209 286.28 683.575C281.21 687.78 274.128 691.096 265.032 693.522C256.086 695.948 244.679 697.161 230.813 697.161C216.946 697.161 205.464 695.948 196.369 693.522C187.273 691.096 180.116 687.78 174.898 683.575C169.828 679.209 166.249 674.033 164.162 668.049C162.224 661.904 161.254 655.111 161.254 647.671V564.946C161.254 557.507 162.224 550.795 164.162 544.811C166.249 538.665 169.828 533.409 174.898 529.042C180.116 524.676 187.273 521.279 196.369 518.853C205.464 516.427 216.946 515.214 230.813 515.214C244.679 515.214 256.086 516.427 265.032 518.853C274.128 521.279 281.21 524.676 286.28 529.042C291.499 533.409 295.077 538.665 297.016 544.811C299.103 550.795 300.147 557.507 300.147 564.946V647.671ZM212.025 638.938C212.025 642.172 213.143 644.922 215.38 647.186C217.617 649.289 222.761 650.34 230.813 650.34C238.864 650.34 244.008 649.289 246.245 647.186C248.482 644.922 249.6 642.172 249.6 638.938V573.68C249.6 570.607 248.482 568.019 246.245 565.917C244.008 563.653 238.864 562.52 230.813 562.52C222.761 562.52 217.617 563.653 215.38 565.917C213.143 568.019 212.025 570.607 212.025 573.68V638.938Z" fill="#3A3A3A"/>
<path d="M465.052 647.671C465.052 655.111 464.008 661.904 461.921 668.049C459.983 674.033 456.404 679.209 451.185 683.575C446.116 687.78 439.033 691.096 429.938 693.522C420.991 695.948 409.585 697.161 395.718 697.161C381.851 697.161 370.37 695.948 361.274 693.522C352.179 691.096 345.022 687.78 339.803 683.575C334.733 679.209 331.155 674.033 329.067 668.049C327.129 661.904 326.16 655.111 326.16 647.671V564.946C326.16 557.507 327.129 550.795 329.067 544.811C331.155 538.665 334.733 533.409 339.803 529.042C345.022 524.676 352.179 521.279 361.274 518.853C370.37 516.427 381.851 515.214 395.718 515.214C409.585 515.214 420.991 516.427 429.938 518.853C439.033 521.279 446.116 524.676 451.185 529.042C456.404 533.409 459.983 538.665 461.921 544.811C464.008 550.795 465.052 557.507 465.052 564.946V647.671ZM376.93 638.938C376.93 642.172 378.049 644.922 380.285 647.186C382.522 649.289 387.666 650.34 395.718 650.34C403.769 650.34 408.914 649.289 411.15 647.186C413.387 644.922 414.505 642.172 414.505 638.938V573.68C414.505 570.607 413.387 568.019 411.15 565.917C408.914 563.653 403.769 562.52 395.718 562.52C387.666 562.52 382.522 563.653 380.285 565.917C378.049 568.019 376.93 570.607 376.93 573.68V638.938Z" fill="#3A3A3A"/>
<path d="M536.244 693.522H501.577C498.744 693.522 496.656 692.875 495.314 691.581C494.121 690.125 493.525 687.861 493.525 684.788V527.587C493.525 524.514 494.121 522.33 495.314 521.037C496.656 519.581 498.744 518.853 501.577 518.853H536.244C539.077 518.853 541.09 519.581 542.283 521.037C543.625 522.33 544.296 524.514 544.296 527.587V583.384H553.242L576.279 526.859C577.323 523.948 578.739 521.926 580.529 520.794C582.318 519.5 584.629 518.853 587.462 518.853H621.906C624.44 518.853 626.155 519.581 627.05 521.037C627.944 522.33 627.87 524.271 626.826 526.859L604.013 583.384C612.363 583.869 618.998 587.103 623.919 593.087C628.988 598.91 631.523 606.673 631.523 616.377V684.788C631.523 687.861 630.852 690.125 629.51 691.581C628.317 692.875 626.304 693.522 623.471 693.522H589.028C586.195 693.522 584.107 692.875 582.765 691.581C581.572 690.125 580.976 687.861 580.976 684.788V637.482C580.976 634.895 580.379 632.873 579.187 631.417C577.994 629.962 576.204 629.234 573.819 629.234H544.296V684.788C544.296 687.861 543.625 690.125 542.283 691.581C541.09 692.875 539.077 693.522 536.244 693.522Z" fill="#3A3A3A"/>
</g>
<defs>
<filter id="filter0_i" x="0" y="0" width="635.523" height="297.636" filterUnits="userSpaceOnUse" color-interpolation-filters="sRGB">
<feFlood flood-opacity="0" result="BackgroundImageFix"/>
<feBlend mode="normal" in="SourceGraphic" in2="BackgroundImageFix" result="shape"/>
<feColorMatrix in="SourceAlpha" type="matrix" values="0 0 0 0 0 0 0 0 0 0 0 0 0 0 0 0 0 0 127 0" result="hardAlpha"/>
<feOffset dx="5" dy="8"/>
<feGaussianBlur stdDeviation="2"/>
<feComposite in2="hardAlpha" operator="arithmetic" k2="-1" k3="1"/>
<feColorMatrix type="matrix" values="0 0 0 0 0 0 0 0 0 0 0 0 0 0 0 0 0 0 1 0"/>
<feBlend mode="normal" in2="shape" result="effect1_innerShadow"/>
</filter>
<filter id="filter1_i" x="1.64893" y="358.488" width="634.238" height="146.675" filterUnits="userSpaceOnUse" color-interpolation-filters="sRGB">
<feFlood flood-opacity="0" result="BackgroundImageFix"/>
<feBlend mode="normal" in="SourceGraphic" in2="BackgroundImageFix" result="shape"/>
<feColorMatrix in="SourceAlpha" type="matrix" values="0 0 0 0 0 0 0 0 0 0 0 0 0 0 0 0 0 0 127 0" result="hardAlpha"/>
<feOffset dx="5" dy="8"/>
<feGaussianBlur stdDeviation="2"/>
<feComposite in2="hardAlpha" operator="arithmetic" k2="-1" k3="1"/>
<feColorMatrix type="matrix" values="0 0 0 0 0 0 0 0 0 0 0 0 0 0 0 0 0 0 1 0"/>
<feBlend mode="normal" in2="shape" result="effect1_innerShadow"/>
</filter>
<filter id="filter2_i" x="1.64893" y="515.214" width="633.874" height="185.946" filterUnits="userSpaceOnUse" color-interpolation-filters="sRGB">
<feFlood flood-opacity="0" result="BackgroundImageFix"/>
<feBlend mode="normal" in="SourceGraphic" in2="BackgroundImageFix" result="shape"/>
<feColorMatrix in="SourceAlpha" type="matrix" values="0 0 0 0 0 0 0 0 0 0 0 0 0 0 0 0 0 0 127 0" result="hardAlpha"/>
<feOffset dx="5" dy="8"/>
<feGaussianBlur stdDeviation="2"/>
<feComposite in2="hardAlpha" operator="arithmetic" k2="-1" k3="1"/>
<feColorMatrix type="matrix" values="0 0 0 0 0 0 0 0 0 0 0 0 0 0 0 0 0 0 1 0"/>
<feBlend mode="normal" in2="shape" result="effect1_innerShadow"/>
</filter>
</defs>
</svg>
