<svg width="384" height="387" viewBox="0 0 384 387" fill="none" xmlns="http://www.w3.org/2000/svg">
<path d="M86.5367 117.759C86.5367 124.56 85.8832 130.77 84.5763 136.388C83.3627 141.858 81.1223 146.589 77.855 150.581C74.681 154.425 70.2935 157.456 64.6925 159.673C59.0914 161.891 51.95 163 43.2683 163C34.5867 163 27.4453 161.891 21.8442 159.673C16.2431 157.456 11.8089 154.425 8.54164 150.581C5.3677 146.589 3.12727 141.858 1.82035 136.388C0.606784 130.77 0 124.56 0 117.759V7.98367C0 5.17461 0.373406 3.17868 1.12022 1.99592C1.96038 0.665303 3.2673 0 5.04097 0H27.0252C28.7989 0 30.0591 0.665303 30.8059 1.99592C31.6461 3.17868 32.0662 5.17461 32.0662 7.98367V109.11C32.0662 112.067 32.7663 114.58 34.1666 116.65C35.5668 118.572 38.6941 119.533 43.5484 119.533C48.496 119.533 51.67 118.572 53.0702 116.65C54.4705 114.58 55.1706 112.067 55.1706 109.11V7.98367C55.1706 5.17461 55.544 3.17868 56.2908 1.99592C57.131 0.665303 58.4379 0 60.2116 0H81.4957C83.2694 0 84.5296 0.665303 85.2764 1.99592C86.1166 3.17868 86.5367 5.17461 86.5367 7.98367V117.759Z" fill="black"/>
<path d="M131.218 159.673H110.214C108.441 159.673 107.134 159.082 106.294 157.899C105.547 156.569 105.173 154.499 105.173 151.69V7.98367C105.173 5.17461 105.547 3.17868 106.294 1.99592C107.134 0.665303 108.441 0 110.214 0H124.777C126.551 0 128.044 0.443534 129.258 1.33061C130.565 2.21769 131.825 3.77007 133.039 5.98775L160.204 55.2204V7.98367C160.204 5.17461 160.577 3.17868 161.324 1.99592C162.164 0.665303 163.471 0 165.245 0H186.249C188.023 0 189.283 0.665303 190.03 1.99592C190.87 3.17868 191.29 5.17461 191.29 7.98367V151.69C191.29 154.499 190.87 156.569 190.03 157.899C189.283 159.082 188.023 159.673 186.249 159.673H165.245C163.471 159.673 162.164 159.082 161.324 157.899C160.577 156.569 160.204 154.499 160.204 151.69V124.412L136.259 78.5061V151.69C136.259 154.499 135.839 156.569 134.999 157.899C134.252 159.082 132.992 159.673 131.218 159.673Z" fill="black"/>
<path d="M237.349 159.673H215.645C213.871 159.673 212.564 159.082 211.724 157.899C210.977 156.569 210.604 154.499 210.604 151.69V7.98367C210.604 5.17461 210.977 3.17868 211.724 1.99592C212.564 0.665303 213.871 0 215.645 0H278.097C279.871 0 281.131 0.665303 281.878 1.99592C282.718 3.17868 283.138 5.17461 283.138 7.98367V34.3742C283.138 37.1832 282.718 39.2531 281.878 40.5837C281.131 41.7664 279.871 42.3578 278.097 42.3578H242.39V65.4218H266.755C268.528 65.4218 269.789 66.0871 270.535 67.4177C271.376 68.6005 271.796 70.5964 271.796 73.4054V100.018C271.796 102.827 271.376 104.897 270.535 106.227C269.789 107.41 268.528 108.001 266.755 108.001H242.39V151.69C242.39 154.499 241.97 156.569 241.13 157.899C240.383 159.082 239.123 159.673 237.349 159.673Z" fill="black"/>
<path d="M383 117.759C383 124.56 382.347 130.77 381.04 136.388C379.826 141.858 377.586 146.589 374.318 150.581C371.144 154.425 366.757 157.456 361.156 159.673C355.555 161.891 348.413 163 339.732 163C331.05 163 323.909 161.891 318.308 159.673C312.706 157.456 308.272 154.425 305.005 150.581C301.831 146.589 299.591 141.858 298.284 136.388C297.07 130.77 296.463 124.56 296.463 117.759V7.98367C296.463 5.17461 296.837 3.17868 297.584 1.99592C298.424 0.665303 299.731 0 301.504 0H323.489C325.262 0 326.522 0.665303 327.269 1.99592C328.109 3.17868 328.529 5.17461 328.529 7.98367V109.11C328.529 112.067 329.23 114.58 330.63 116.65C332.03 118.572 335.157 119.533 340.012 119.533C344.959 119.533 348.133 118.572 349.534 116.65C350.934 114.58 351.634 112.067 351.634 109.11V7.98367C351.634 5.17461 352.007 3.17868 352.754 1.99592C353.594 0.665303 354.901 0 356.675 0H377.959C379.733 0 380.993 0.665303 381.74 1.99592C382.58 3.17868 383 5.17461 383 7.98367V117.759Z" fill="black"/>
<path d="M0 179.5C0 174.806 3.80558 171 8.5 171H374.5C379.194 171 383 174.806 383 179.5V179.5C383 184.194 379.194 188 374.5 188H8.49999C3.80557 188 0 184.194 0 179.5V179.5Z" fill="black"/>
<path d="M62.71 278.2H28.06C18.8933 278.2 12.0733 276.367 7.6 272.7C3.2 269.033 1 263.387 1 255.76V221.44C1 213.813 3.2 208.167 7.6 204.5C12.0733 200.833 18.8933 199 28.06 199H55.56C56.9533 199 57.9433 199.33 58.53 199.99C59.19 200.577 59.52 201.567 59.52 202.96V216.27C59.52 217.663 59.19 218.69 58.53 219.35C57.9433 219.937 56.9533 220.23 55.56 220.23H32.68C30.4067 220.23 28.72 220.707 27.62 221.66C26.52 222.54 25.97 223.897 25.97 225.73V252.02C25.97 253.853 26.3733 255.21 27.18 256.09C28.06 256.97 29.3433 257.41 31.03 257.41H41.7V240.25C41.7 238.857 41.9933 237.867 42.58 237.28C43.24 236.62 44.2667 236.29 45.66 236.29H62.71C64.1033 236.29 65.0933 236.62 65.68 237.28C66.34 237.867 66.67 238.857 66.67 240.25V274.24C66.67 275.633 66.34 276.66 65.68 277.32C65.0933 277.907 64.1033 278.2 62.71 278.2Z" fill="black"/>
<path d="M104.951 218.8V232.88H113.201C115.108 232.88 116.391 232.403 117.051 231.45C117.711 230.423 118.041 229.177 118.041 227.71V223.97C118.041 222.503 117.711 221.293 117.051 220.34C116.391 219.313 115.108 218.8 113.201 218.8H104.951ZM100.991 278.2H84.0509C82.6575 278.2 81.6309 277.907 80.9709 277.32C80.3842 276.66 80.0909 275.633 80.0909 274.24V202.96C80.0909 201.567 80.3842 200.577 80.9709 199.99C81.6309 199.33 82.6575 199 84.0509 199H120.681C128.894 199 134.541 200.723 137.621 204.17C140.774 207.543 142.351 211.943 142.351 217.37V222.43C142.351 225.51 141.874 228.15 140.921 230.35C140.041 232.477 138.464 234.017 136.191 234.97C140.151 235.41 143.341 237.023 145.761 239.81C148.254 242.597 149.501 246.3 149.501 250.92V274.24C149.501 275.633 149.171 276.66 148.511 277.32C147.924 277.907 146.934 278.2 145.541 278.2H128.491C127.098 278.2 126.071 277.907 125.411 277.32C124.824 276.66 124.531 275.633 124.531 274.24V257.41C124.531 255.797 124.201 254.623 123.541 253.89C122.954 253.083 121.891 252.68 120.351 252.68H104.951V274.24C104.951 275.633 104.621 276.66 103.961 277.32C103.374 277.907 102.384 278.2 100.991 278.2Z" fill="black"/>
<path d="M190.549 222.1L185.379 238.82H202.649L197.479 222.1C197.186 221.44 196.856 220.963 196.489 220.67C196.196 220.377 195.829 220.23 195.389 220.23H192.639C192.199 220.23 191.796 220.377 191.429 220.67C191.136 220.963 190.842 221.44 190.549 222.1ZM184.279 274.24C184.279 275.633 183.949 276.66 183.289 277.32C182.702 277.907 181.712 278.2 180.319 278.2H164.149C162.756 278.2 161.729 277.907 161.069 277.32C160.482 276.66 160.189 275.633 160.189 274.24V245.2C160.189 243 160.519 240.47 161.179 237.61C161.912 234.75 163.012 231.413 164.479 227.6L174.049 202.63C174.489 201.383 175.149 200.467 176.029 199.88C176.982 199.293 178.192 199 179.659 199H209.249C210.642 199 211.779 199.293 212.659 199.88C213.612 200.467 214.309 201.383 214.749 202.63L224.319 227.6C225.786 231.413 226.849 234.75 227.509 237.61C228.242 240.47 228.609 243 228.609 245.2V274.24C228.609 275.633 228.279 276.66 227.619 277.32C227.032 277.907 226.042 278.2 224.649 278.2H208.039C206.572 278.2 205.472 277.907 204.739 277.32C204.079 276.66 203.749 275.633 203.749 274.24V258.84H184.279V274.24Z" fill="black"/>
<path d="M283.22 278.2H246.15C244.757 278.2 243.73 277.907 243.07 277.32C242.484 276.66 242.19 275.633 242.19 274.24V202.96C242.19 201.567 242.484 200.577 243.07 199.99C243.73 199.33 244.757 199 246.15 199H283.22C292.387 199 299.17 200.833 303.57 204.5C308.044 208.167 310.28 213.813 310.28 221.44V255.76C310.28 263.387 308.044 269.033 303.57 272.7C299.17 276.367 292.387 278.2 283.22 278.2ZM267.16 220.01V257.41H280.25C282.01 257.41 283.294 256.97 284.1 256.09C284.98 255.21 285.42 253.853 285.42 252.02V225.29C285.42 223.457 284.98 222.137 284.1 221.33C283.294 220.45 282.01 220.01 280.25 220.01H267.16Z" fill="black"/>
<path d="M379.261 278.2H328.221C326.827 278.2 325.801 277.907 325.141 277.32C324.554 276.66 324.261 275.633 324.261 274.24V202.96C324.261 201.567 324.554 200.577 325.141 199.99C325.801 199.33 326.827 199 328.221 199H379.261C380.654 199 381.644 199.33 382.231 199.99C382.891 200.577 383.221 201.567 383.221 202.96V215.83C383.221 217.223 382.891 218.25 382.231 218.91C381.644 219.497 380.654 219.79 379.261 219.79H348.901V228.26H370.351C371.744 228.26 372.734 228.59 373.321 229.25C373.981 229.837 374.311 230.827 374.311 232.22V243.99C374.311 245.383 373.981 246.41 373.321 247.07C372.734 247.657 371.744 247.95 370.351 247.95H348.901V257.41H379.261C380.654 257.41 381.644 257.74 382.231 258.4C382.891 258.987 383.221 259.977 383.221 261.37V274.24C383.221 275.633 382.891 276.66 382.231 277.32C381.644 277.907 380.654 278.2 379.261 278.2Z" fill="black"/>
<path d="M57.97 384.98H5.88314C4.165 384.98 2.899 384.621 2.08514 383.903C1.36172 383.095 1 381.838 1 380.132V292.868C1 291.162 1.36172 289.95 2.08514 289.232C2.899 288.424 4.165 288.02 5.88314 288.02H49.1532C58.0152 288.02 64.5713 289.726 68.8214 293.137C73.0716 296.459 75.1967 301.621 75.1967 308.624V315.088C75.1967 318.859 74.5184 321.956 73.162 324.38C71.896 326.714 69.9066 328.465 67.1937 329.632C72.9812 330.171 77.2765 332.146 80.0798 335.557C82.8831 338.969 84.2847 343.952 84.2847 350.505V362.895C84.2847 370.436 82.1144 376.002 77.7739 379.593C73.5237 383.184 66.9224 384.98 57.97 384.98ZM31.5196 310.913V325.457H43.0493C44.7674 325.457 46.0334 325.008 46.8473 324.111C47.7516 323.213 48.2037 321.866 48.2037 320.071V316.3C48.2037 314.504 47.7516 313.158 46.8473 312.26C46.0334 311.362 44.7674 310.913 43.0493 310.913H31.5196ZM31.5196 346.196V362.087H49.1532C50.8714 362.087 52.1374 361.638 52.9512 360.74C53.8555 359.842 54.3076 358.496 54.3076 356.7V351.448C54.3076 349.652 53.8555 348.351 52.9512 347.543C52.1374 346.645 50.8714 346.196 49.1532 346.196H31.5196Z" fill="black"/>
<path d="M182.03 359.528C182.03 363.658 181.397 367.428 180.131 370.84C178.956 374.162 176.785 377.035 173.62 379.459C170.546 381.793 166.25 383.633 160.734 384.98C155.309 386.327 148.391 387 139.981 387C131.571 387 124.608 386.327 119.092 384.98C113.576 383.633 109.235 381.793 106.07 379.459C102.996 377.035 100.825 374.162 99.5594 370.84C98.3838 367.428 97.796 363.658 97.796 359.528V313.607C97.796 309.477 98.3838 305.751 99.5594 302.429C100.825 299.018 102.996 296.1 106.07 293.676C109.235 291.252 113.576 289.367 119.092 288.02C124.608 286.673 131.571 286 139.981 286C148.391 286 155.309 286.673 160.734 288.02C166.25 289.367 170.546 291.252 173.62 293.676C176.785 296.1 178.956 299.018 180.131 302.429C181.397 305.751 182.03 309.477 182.03 313.607V359.528ZM128.587 354.68C128.587 356.476 129.265 358.002 130.622 359.259C131.978 360.426 135.098 361.009 139.981 361.009C144.864 361.009 147.984 360.426 149.34 359.259C150.697 358.002 151.375 356.476 151.375 354.68V318.455C151.375 316.749 150.697 315.312 149.34 314.145C147.984 312.888 144.864 312.26 139.981 312.26C135.098 312.26 131.978 312.888 130.622 314.145C129.265 315.312 128.587 316.749 128.587 318.455V354.68Z" fill="black"/>
<path d="M282.04 359.528C282.04 363.658 281.407 367.428 280.141 370.84C278.966 374.162 276.796 377.035 273.631 379.459C270.556 381.793 266.261 383.633 260.744 384.98C255.319 386.327 248.401 387 239.991 387C231.581 387 224.618 386.327 219.102 384.98C213.586 383.633 209.245 381.793 206.08 379.459C203.006 377.035 200.835 374.162 199.569 370.84C198.394 367.428 197.806 363.658 197.806 359.528V313.607C197.806 309.477 198.394 305.751 199.569 302.429C200.835 299.018 203.006 296.1 206.08 293.676C209.245 291.252 213.586 289.367 219.102 288.02C224.618 286.673 231.581 286 239.991 286C248.401 286 255.319 286.673 260.744 288.02C266.261 289.367 270.556 291.252 273.631 293.676C276.796 296.1 278.966 299.018 280.141 302.429C281.407 305.751 282.04 309.477 282.04 313.607V359.528ZM228.597 354.68C228.597 356.476 229.275 358.002 230.632 359.259C231.988 360.426 235.108 361.009 239.991 361.009C244.874 361.009 247.994 360.426 249.35 359.259C250.707 358.002 251.385 356.476 251.385 354.68V318.455C251.385 316.749 250.707 315.312 249.35 314.145C247.994 312.888 244.874 312.26 239.991 312.26C235.108 312.26 231.988 312.888 230.632 314.145C229.275 315.312 228.597 316.749 228.597 318.455V354.68Z" fill="black"/>
<path d="M325.216 384.98H304.191C302.473 384.98 301.207 384.621 300.393 383.903C299.67 383.095 299.308 381.838 299.308 380.132V292.868C299.308 291.162 299.67 289.95 300.393 289.232C301.207 288.424 302.473 288.02 304.191 288.02H325.216C326.934 288.02 328.155 288.424 328.878 289.232C329.692 289.95 330.099 291.162 330.099 292.868V323.841H335.525L349.496 292.464C350.129 290.848 350.988 289.726 352.073 289.097C353.159 288.379 354.56 288.02 356.278 288.02H377.167C378.705 288.02 379.745 288.424 380.287 289.232C380.83 289.95 380.784 291.028 380.151 292.464L366.316 323.841C371.38 324.111 375.404 325.906 378.388 329.228C381.463 332.46 383 336.769 383 342.156V380.132C383 381.838 382.593 383.095 381.779 383.903C381.056 384.621 379.835 384.98 378.117 384.98H357.228C355.51 384.98 354.244 384.621 353.43 383.903C352.706 383.095 352.345 381.838 352.345 380.132V353.872C352.345 352.436 351.983 351.313 351.26 350.505C350.536 349.697 349.451 349.293 348.004 349.293H330.099V380.132C330.099 381.838 329.692 383.095 328.878 383.903C328.155 384.621 326.934 384.98 325.216 384.98Z" fill="black"/>
</svg>
